<?xml version="1.0" standalone="no"?>
<!DOCTYPE svg PUBLIC "-//W3C//DTD SVG 20010904//EN"
 "http://www.w3.org/TR/2001/REC-SVG-20010904/DTD/svg10.dtd">
<svg version="1.0" xmlns="http://www.w3.org/2000/svg"
 width="992.000000pt" height="316.000000pt" viewBox="0 0 992.000000 316.000000"
 preserveAspectRatio="xMidYMid meet">

<g transform="translate(0.000000,316.000000) scale(0.100000,-0.100000)"
fill="#000000" stroke="none">
<path d="M3030 2231 c0 -6 -20 -52 -44 -103 -24 -51 -67 -147 -96 -213 -125
-287 -155 -354 -187 -420 -50 -103 -144 -326 -150 -358 l-6 -28 64 3 c63 3 64
3 84 43 12 22 35 76 52 120 53 134 71 165 96 166 188 7 378 7 402 1 33 -9 42
-23 80 -127 15 -38 35 -88 46 -111 10 -22 19 -45 19 -51 0 -23 49 -43 96 -39
25 2 48 7 51 9 3 3 -36 99 -87 214 -50 114 -112 255 -137 313 -25 58 -88 197
-138 310 -51 113 -100 222 -108 243 -15 34 -37 51 -37 28z m59 -374 c21 -46
42 -95 46 -108 4 -13 20 -51 35 -84 15 -33 30 -70 34 -82 l7 -23 -153 0 c-84
0 -158 4 -165 8 -12 7 -2 36 102 282 26 62 42 90 52 90 2 0 21 -38 42 -83z"/>
<path d="M8527 2234 c-4 -4 -81 -158 -172 -343 -212 -432 -250 -504 -263 -509
-10 -3 -402 771 -402 794 0 5 -9 20 -19 33 l-19 24 -7 -33 c-4 -18 -13 -92
-20 -164 -7 -72 -15 -142 -18 -156 -3 -14 -8 -65 -12 -115 -6 -93 -21 -165
-33 -165 -3 0 -37 12 -75 27 -79 31 -91 48 -100 137 -14 145 -143 317 -292
391 -101 49 -163 65 -257 65 -200 -1 -371 -86 -471 -237 -56 -84 -83 -152 -98
-243 -7 -39 -17 -74 -23 -79 -6 -5 -54 -26 -106 -48 -82 -34 -241 -118 -185
-98 159 58 274 95 290 93 15 -2 21 -14 27 -46 11 -67 54 -175 90 -227 57 -81
163 -163 259 -199 82 -30 212 -41 316 -26 219 31 405 214 453 444 12 58 12 58
43 53 18 -3 54 -15 81 -26 l49 -22 -7 -97 c-3 -53 -14 -148 -22 -211 -16 -110
-16 -115 2 -128 20 -15 90 -18 99 -4 5 9 24 129 46 295 12 91 15 100 37 91 14
-5 14 -3 -1 13 -20 22 -22 99 -3 212 15 98 31 101 73 12 18 -37 79 -164 136
-282 57 -118 116 -241 130 -273 14 -31 31 -57 37 -57 10 0 136 250 283 561 30
64 59 119 66 123 22 14 30 -32 61 -354 22 -228 38 -333 51 -341 21 -13 73 -11
93 4 17 12 17 20 -3 182 -11 94 -23 202 -26 240 -4 39 -20 181 -36 317 -16
137 -29 269 -30 295 0 53 -11 88 -22 77z m-1557 -158 c111 -39 207 -122 257
-221 22 -43 50 -142 42 -149 -3 -3 -38 2 -79 10 -61 13 -128 15 -385 10 -170
-3 -332 -7 -360 -8 l-50 -3 3 35 c6 54 69 168 122 220 41 40 111 82 185 112
11 4 38 9 60 11 101 9 138 6 205 -17z m147 -415 c50 -5 104 -16 120 -23 25
-12 28 -18 25 -58 -3 -63 -62 -178 -120 -235 -91 -92 -253 -145 -376 -125
-170 28 -314 152 -358 308 -25 93 -24 99 20 112 91 26 502 39 689 21z"/>
<path d="M1446 2202 c-65 -21 -157 -110 -174 -168 -7 -23 -12 -72 -12 -110 0
-145 75 -220 305 -305 97 -36 179 -88 205 -132 14 -23 20 -50 20 -92 -1 -51
-5 -66 -30 -99 -40 -53 -84 -77 -150 -83 -95 -9 -184 42 -262 150 -23 31 -49
57 -57 57 -20 0 -91 -47 -91 -60 0 -18 85 -133 123 -165 117 -100 250 -129
389 -84 132 42 212 155 212 299 1 159 -63 229 -303 331 -185 79 -221 112 -221
204 0 67 27 110 86 135 58 25 124 25 173 1 21 -11 64 -48 96 -82 l58 -63 46
26 c37 21 45 30 43 49 -9 62 -96 142 -201 186 -68 28 -181 30 -255 5z"/>
<path d="M3945 2214 c-89 -21 -119 -31 -181 -60 -132 -62 -245 -211 -275 -362
-17 -92 -7 -264 21 -333 12 -30 26 -61 31 -69 5 -8 15 -30 24 -49 24 -53 129
-147 210 -187 88 -43 185 -58 325 -49 97 7 179 33 242 79 30 21 42 69 36 144
l-3 43 -22 -20 c-11 -11 -45 -36 -75 -54 -136 -88 -299 -100 -433 -34 -88 43
-183 153 -209 242 -52 177 -16 342 100 460 131 133 337 159 513 64 42 -22 85
-49 97 -60 11 -10 23 -19 26 -19 3 0 5 34 5 76 0 73 -2 76 -32 100 -17 13 -63
38 -101 55 -61 28 -81 32 -174 35 -58 2 -114 1 -125 -2z"/>
<path d="M5660 2204 c-139 -37 -238 -107 -313 -222 -70 -107 -79 -139 -84
-298 -5 -128 -3 -148 17 -210 50 -150 137 -251 283 -328 154 -81 471 -53 565
50 18 21 22 37 22 94 l0 69 -79 -54 c-89 -60 -124 -73 -223 -82 -180 -16 -339
74 -419 237 -27 55 -33 79 -37 161 -11 218 84 370 279 448 76 30 201 31 283 1
65 -23 92 -39 154 -88 l42 -34 0 79 c0 64 -4 83 -17 95 -30 26 -119 69 -175
84 -68 18 -227 17 -298 -2z"/>
<path d="M2058 2199 c-17 -9 -18 -45 -18 -532 0 -394 3 -526 12 -535 19 -19
114 -16 122 4 3 9 6 103 6 209 0 145 3 194 13 197 6 2 61 5 121 7 190 5 281
44 348 150 46 72 62 135 56 214 -13 155 -133 263 -318 286 -107 14 -319 14
-342 0z m439 -152 c53 -34 71 -60 85 -128 15 -75 -2 -131 -56 -185 -50 -50
-102 -64 -246 -64 l-100 0 0 198 c0 109 3 202 8 206 4 5 66 6 137 4 120 -4
133 -7 172 -31z"/>
<path d="M4561 2199 l-23 -9 3 -508 c4 -487 5 -508 24 -534 l20 -27 286 -1
c312 0 296 -3 295 60 l-1 35 -240 2 c-230 3 -241 4 -257 24 -16 18 -18 44 -18
188 0 114 4 174 13 191 l13 25 216 0 c119 0 219 3 222 6 7 7 20 108 14 111 -2
1 -104 5 -228 8 l-225 5 -3 145 c-2 129 -1 146 15 158 13 9 70 13 223 12 113
0 215 -1 228 0 20 0 22 5 22 60 l0 60 -287 -1 c-159 0 -299 -5 -312 -10z"/>
</g>
</svg>
